<mxfile host="app.diagrams.net" agent="Mozilla/5.0 (Windows NT 10.0; Win64; x64) AppleWebKit/537.36 (KHTML, like Gecko) Chrome/131.0.0.0 Safari/537.36 Edg/131.0.0.0" version="25.0.1">
  <diagram name="Page-1" id="b4p0uh4scSWvqloB1kky">
    <mxGraphModel dx="2745" dy="2127" grid="1" gridSize="10" guides="1" tooltips="1" connect="1" arrows="1" fold="1" page="1" pageScale="1" pageWidth="850" pageHeight="1100" math="0" shadow="0">
      <root>
        <mxCell id="0" />
        <mxCell id="1" parent="0" />
        <mxCell id="-wJQ4NL4KOzzLJpwQmLx-7" value="" style="edgeStyle=orthogonalEdgeStyle;rounded=0;orthogonalLoop=1;jettySize=auto;html=1;entryX=0.5;entryY=0;entryDx=0;entryDy=0;" edge="1" parent="1" source="-wJQ4NL4KOzzLJpwQmLx-1">
          <mxGeometry relative="1" as="geometry">
            <mxPoint x="-495.0000000000001" y="-970" as="targetPoint" />
          </mxGeometry>
        </mxCell>
        <mxCell id="-wJQ4NL4KOzzLJpwQmLx-1" value="&lt;font data-font-src=&quot;https://fonts.googleapis.com/css?family=Sarabun&quot; face=&quot;Sarabun&quot;&gt;Start&lt;/font&gt;" style="ellipse;whiteSpace=wrap;html=1;" vertex="1" parent="1">
          <mxGeometry x="-560.0000000000001" y="-1040" width="130" height="30" as="geometry" />
        </mxCell>
        <mxCell id="-wJQ4NL4KOzzLJpwQmLx-38" value="" style="edgeStyle=orthogonalEdgeStyle;rounded=0;orthogonalLoop=1;jettySize=auto;html=1;" edge="1" parent="1" source="-wJQ4NL4KOzzLJpwQmLx-2" target="-wJQ4NL4KOzzLJpwQmLx-5">
          <mxGeometry relative="1" as="geometry" />
        </mxCell>
        <mxCell id="-wJQ4NL4KOzzLJpwQmLx-2" value="ปริ้นค่า arr3" style="rounded=0;whiteSpace=wrap;html=1;shape=parallelogram;perimeter=parallelogramPerimeter;fixedSize=1;" vertex="1" parent="1">
          <mxGeometry x="-561.0000000000001" width="130" height="40" as="geometry" />
        </mxCell>
        <mxCell id="-wJQ4NL4KOzzLJpwQmLx-32" value="" style="edgeStyle=orthogonalEdgeStyle;rounded=0;orthogonalLoop=1;jettySize=auto;html=1;" edge="1" parent="1" source="-wJQ4NL4KOzzLJpwQmLx-3" target="-wJQ4NL4KOzzLJpwQmLx-28">
          <mxGeometry relative="1" as="geometry" />
        </mxCell>
        <mxCell id="-wJQ4NL4KOzzLJpwQmLx-3" value="" style="ellipse;whiteSpace=wrap;html=1;aspect=fixed;" vertex="1" parent="1">
          <mxGeometry x="-505" y="-240" width="20" height="20" as="geometry" />
        </mxCell>
        <mxCell id="-wJQ4NL4KOzzLJpwQmLx-34" style="edgeStyle=orthogonalEdgeStyle;rounded=0;orthogonalLoop=1;jettySize=auto;html=1;entryX=0;entryY=0.5;entryDx=0;entryDy=0;" edge="1" parent="1" source="-wJQ4NL4KOzzLJpwQmLx-4" target="-wJQ4NL4KOzzLJpwQmLx-3">
          <mxGeometry relative="1" as="geometry">
            <Array as="points">
              <mxPoint x="-630" y="-70" />
              <mxPoint x="-630" y="-230" />
            </Array>
          </mxGeometry>
        </mxCell>
        <mxCell id="-wJQ4NL4KOzzLJpwQmLx-36" value="" style="edgeStyle=orthogonalEdgeStyle;rounded=0;orthogonalLoop=1;jettySize=auto;html=1;" edge="1" parent="1" source="-wJQ4NL4KOzzLJpwQmLx-4" target="-wJQ4NL4KOzzLJpwQmLx-2">
          <mxGeometry relative="1" as="geometry" />
        </mxCell>
        <mxCell id="-wJQ4NL4KOzzLJpwQmLx-4" value="รวมครบแล้วหรือไม่" style="rhombus;whiteSpace=wrap;html=1;" vertex="1" parent="1">
          <mxGeometry x="-559" y="-110" width="128" height="80" as="geometry" />
        </mxCell>
        <mxCell id="-wJQ4NL4KOzzLJpwQmLx-5" value="&lt;font face=&quot;Sarabun&quot;&gt;END&lt;/font&gt;" style="ellipse;whiteSpace=wrap;html=1;" vertex="1" parent="1">
          <mxGeometry x="-561.0000000000001" y="90" width="130" height="30" as="geometry" />
        </mxCell>
        <mxCell id="-wJQ4NL4KOzzLJpwQmLx-9" value="" style="edgeStyle=orthogonalEdgeStyle;rounded=0;orthogonalLoop=1;jettySize=auto;html=1;" edge="1" parent="1" source="-wJQ4NL4KOzzLJpwQmLx-6" target="-wJQ4NL4KOzzLJpwQmLx-8">
          <mxGeometry relative="1" as="geometry" />
        </mxCell>
        <mxCell id="-wJQ4NL4KOzzLJpwQmLx-6" value="กำหนดตัวแปร arr input1" style="rounded=0;whiteSpace=wrap;html=1;" vertex="1" parent="1">
          <mxGeometry x="-560.0000000000001" y="-810" width="130" height="40" as="geometry" />
        </mxCell>
        <mxCell id="-wJQ4NL4KOzzLJpwQmLx-11" value="" style="edgeStyle=orthogonalEdgeStyle;rounded=0;orthogonalLoop=1;jettySize=auto;html=1;" edge="1" parent="1" source="-wJQ4NL4KOzzLJpwQmLx-8" target="-wJQ4NL4KOzzLJpwQmLx-10">
          <mxGeometry relative="1" as="geometry" />
        </mxCell>
        <mxCell id="-wJQ4NL4KOzzLJpwQmLx-8" value="กำหนดตัวแปร arr input2" style="rounded=0;whiteSpace=wrap;html=1;" vertex="1" parent="1">
          <mxGeometry x="-560.0000000000001" y="-730" width="130" height="40" as="geometry" />
        </mxCell>
        <mxCell id="-wJQ4NL4KOzzLJpwQmLx-19" value="" style="edgeStyle=orthogonalEdgeStyle;rounded=0;orthogonalLoop=1;jettySize=auto;html=1;" edge="1" parent="1" source="-wJQ4NL4KOzzLJpwQmLx-10" target="-wJQ4NL4KOzzLJpwQmLx-17">
          <mxGeometry relative="1" as="geometry" />
        </mxCell>
        <mxCell id="-wJQ4NL4KOzzLJpwQmLx-10" value="กำหนดตัวแปร arr input3" style="rounded=0;whiteSpace=wrap;html=1;" vertex="1" parent="1">
          <mxGeometry x="-560.0000000000001" y="-650" width="130" height="40" as="geometry" />
        </mxCell>
        <mxCell id="-wJQ4NL4KOzzLJpwQmLx-13" value="" style="edgeStyle=orthogonalEdgeStyle;rounded=0;orthogonalLoop=1;jettySize=auto;html=1;" edge="1" parent="1" source="-wJQ4NL4KOzzLJpwQmLx-12" target="-wJQ4NL4KOzzLJpwQmLx-6">
          <mxGeometry relative="1" as="geometry" />
        </mxCell>
        <mxCell id="-wJQ4NL4KOzzLJpwQmLx-12" value="กำหนดตัวแปร n2" style="rounded=0;whiteSpace=wrap;html=1;" vertex="1" parent="1">
          <mxGeometry x="-560.0000000000001" y="-890" width="130" height="40" as="geometry" />
        </mxCell>
        <mxCell id="-wJQ4NL4KOzzLJpwQmLx-18" value="" style="edgeStyle=orthogonalEdgeStyle;rounded=0;orthogonalLoop=1;jettySize=auto;html=1;" edge="1" parent="1" source="-wJQ4NL4KOzzLJpwQmLx-15" target="-wJQ4NL4KOzzLJpwQmLx-12">
          <mxGeometry relative="1" as="geometry" />
        </mxCell>
        <mxCell id="-wJQ4NL4KOzzLJpwQmLx-15" value="กรอกตัวแปร n" style="rounded=0;whiteSpace=wrap;html=1;shape=label;fixedSize=1;" vertex="1" parent="1">
          <mxGeometry x="-560.0000000000001" y="-970" width="130" height="40" as="geometry" />
        </mxCell>
        <mxCell id="-wJQ4NL4KOzzLJpwQmLx-21" value="" style="edgeStyle=orthogonalEdgeStyle;rounded=0;orthogonalLoop=1;jettySize=auto;html=1;" edge="1" parent="1" source="-wJQ4NL4KOzzLJpwQmLx-17" target="-wJQ4NL4KOzzLJpwQmLx-20">
          <mxGeometry relative="1" as="geometry" />
        </mxCell>
        <mxCell id="-wJQ4NL4KOzzLJpwQmLx-17" value="กรอกตัวแปร n" style="rounded=0;whiteSpace=wrap;html=1;shape=parallelogram;perimeter=parallelogramPerimeter;fixedSize=1;" vertex="1" parent="1">
          <mxGeometry x="-560.0000000000001" y="-580" width="130" height="40" as="geometry" />
        </mxCell>
        <mxCell id="-wJQ4NL4KOzzLJpwQmLx-25" value="" style="edgeStyle=orthogonalEdgeStyle;rounded=0;orthogonalLoop=1;jettySize=auto;html=1;" edge="1" parent="1" source="-wJQ4NL4KOzzLJpwQmLx-20" target="-wJQ4NL4KOzzLJpwQmLx-24">
          <mxGeometry relative="1" as="geometry" />
        </mxCell>
        <mxCell id="-wJQ4NL4KOzzLJpwQmLx-20" value="กรอกตัวแปร n2" style="rounded=0;whiteSpace=wrap;html=1;shape=parallelogram;perimeter=parallelogramPerimeter;fixedSize=1;" vertex="1" parent="1">
          <mxGeometry x="-560.0000000000001" y="-510" width="130" height="40" as="geometry" />
        </mxCell>
        <mxCell id="-wJQ4NL4KOzzLJpwQmLx-31" style="edgeStyle=orthogonalEdgeStyle;rounded=0;orthogonalLoop=1;jettySize=auto;html=1;entryX=0.5;entryY=0;entryDx=0;entryDy=0;" edge="1" parent="1" source="-wJQ4NL4KOzzLJpwQmLx-22" target="-wJQ4NL4KOzzLJpwQmLx-3">
          <mxGeometry relative="1" as="geometry" />
        </mxCell>
        <mxCell id="-wJQ4NL4KOzzLJpwQmLx-22" value="กรอกตัวแปร arr input3" style="rounded=0;whiteSpace=wrap;html=1;" vertex="1" parent="1">
          <mxGeometry x="-560.0000000000001" y="-300" width="130" height="40" as="geometry" />
        </mxCell>
        <mxCell id="-wJQ4NL4KOzzLJpwQmLx-27" value="" style="edgeStyle=orthogonalEdgeStyle;rounded=0;orthogonalLoop=1;jettySize=auto;html=1;" edge="1" parent="1" source="-wJQ4NL4KOzzLJpwQmLx-23" target="-wJQ4NL4KOzzLJpwQmLx-22">
          <mxGeometry relative="1" as="geometry" />
        </mxCell>
        <mxCell id="-wJQ4NL4KOzzLJpwQmLx-23" value="กรอกตัวแปร arr input2" style="rounded=0;whiteSpace=wrap;html=1;" vertex="1" parent="1">
          <mxGeometry x="-560.0000000000001" y="-370" width="130" height="40" as="geometry" />
        </mxCell>
        <mxCell id="-wJQ4NL4KOzzLJpwQmLx-26" value="" style="edgeStyle=orthogonalEdgeStyle;rounded=0;orthogonalLoop=1;jettySize=auto;html=1;" edge="1" parent="1" source="-wJQ4NL4KOzzLJpwQmLx-24" target="-wJQ4NL4KOzzLJpwQmLx-23">
          <mxGeometry relative="1" as="geometry" />
        </mxCell>
        <mxCell id="-wJQ4NL4KOzzLJpwQmLx-24" value="กรอกตัวแปร arr input1" style="rounded=0;whiteSpace=wrap;html=1;" vertex="1" parent="1">
          <mxGeometry x="-560.0000000000001" y="-440" width="130" height="40" as="geometry" />
        </mxCell>
        <mxCell id="-wJQ4NL4KOzzLJpwQmLx-33" value="" style="edgeStyle=orthogonalEdgeStyle;rounded=0;orthogonalLoop=1;jettySize=auto;html=1;" edge="1" parent="1" source="-wJQ4NL4KOzzLJpwQmLx-28" target="-wJQ4NL4KOzzLJpwQmLx-4">
          <mxGeometry relative="1" as="geometry" />
        </mxCell>
        <mxCell id="-wJQ4NL4KOzzLJpwQmLx-28" value="รวม arr1 เข้ากับ arr2&lt;div&gt;ไปใน arr3&lt;/div&gt;" style="rounded=0;whiteSpace=wrap;html=1;" vertex="1" parent="1">
          <mxGeometry x="-560" y="-190" width="130" height="40" as="geometry" />
        </mxCell>
        <mxCell id="-wJQ4NL4KOzzLJpwQmLx-35" value="T" style="text;html=1;align=center;verticalAlign=middle;resizable=0;points=[];autosize=1;strokeColor=none;fillColor=none;" vertex="1" parent="1">
          <mxGeometry x="-490" y="-40" width="30" height="30" as="geometry" />
        </mxCell>
        <mxCell id="-wJQ4NL4KOzzLJpwQmLx-39" value="F" style="text;html=1;align=center;verticalAlign=middle;resizable=0;points=[];autosize=1;strokeColor=none;fillColor=none;" vertex="1" parent="1">
          <mxGeometry x="-570" y="-110" width="30" height="30" as="geometry" />
        </mxCell>
      </root>
    </mxGraphModel>
  </diagram>
</mxfile>
